<!-- created by svgstack.com | Attribution is required. --><svg width="120" height="120" viewBox="0 0 120 120" fill="none" xmlns="http://www.w3.org/2000/svg"><path fill-rule="evenodd" clip-rule="evenodd" d="M27.0996 0H92.9004C100.081 0.0207088 106.962 2.89579 112.04 7.99716C117.118 13.0985 119.979 20.0115 120 27.2259V92.7839C119.977 99.9966 117.114 106.907 112.037 112.006C106.959 117.106 100.08 119.979 92.9004 120H27.0996C19.9204 119.979 13.0409 117.106 7.9635 112.006C2.88607 106.907 0.0231876 99.9966 0 92.7839V27.2259C0.0206128 20.0115 2.88236 13.0985 7.96006 7.99716C13.0378 2.89579 19.9187 0.0207088 27.0996 0Z" fill="#160C1A"/><path fill-rule="evenodd" clip-rule="evenodd" d="M75.7521 14.7756C77.2071 27.2652 84.6583 36.0756 96.6798 36.8605V48.7025V38.6461C84.5802 37.871 77.6564 30.4146 76.172 17.9348H63.4767V70.4735C65.3224 94.1281 46.9825 94.8345 39.961 85.8671C48.1446 91.0376 61.5236 87.6724 59.922 67.3241V14.7756H75.7521ZM41.4552 101.889C37.8493 101.172 34.4267 99.7238 31.3961 97.6338C28.3655 95.5438 25.7905 92.8555 23.8282 89.7327C14.4728 74.3587 22.9103 49.2912 50.0489 46.7109V50.4097C24.8439 54.4421 22.3146 81.5895 29.297 92.8919C32.1422 97.2651 36.4629 100.46 41.465 101.889H41.4552Z" fill="#26F4EE"/><path fill-rule="evenodd" clip-rule="evenodd" d="M79.3848 18.7C80.2148 25.813 82.8223 31.994 87.1289 36.154C81.0547 33.0046 77.4219 27.0198 76.2695 18.7H79.3848ZM96.6113 41.2067C97.6693 41.4373 98.7435 41.5849 99.8242 41.6482V55.6487C92.832 56.3453 86.709 54.0299 79.5801 49.762L80.6738 73.7797C80.6738 81.5305 80.6738 85.0723 76.5625 92.2148C66.4648 109.6 47.6074 109.59 36.4355 99.6909C50.9961 108.089 76.416 101.516 76.3672 72.985V46.7402C83.4961 51.0473 89.6191 53.3529 96.6113 52.6269V41.2067ZM49.9805 51.322C51.5034 51.0071 53.0421 50.7746 54.5898 50.6254V65.4402C48.7305 66.4213 44.9805 68.2266 43.2324 71.5722C38.3496 81.0203 43.457 88.7122 50.2637 91.1944C41.748 90.8805 33.3105 82.0995 39.1699 70.8363C40.918 67.4809 44.0527 65.6757 49.9805 64.6946V51.322Z" fill="#FB2C53"/><path fill-rule="evenodd" clip-rule="evenodd" d="M76.1717 17.9053C77.6268 30.4145 84.5604 37.8513 96.6112 38.6264V52.6661C89.619 53.3529 83.496 51.0473 76.3671 46.7794V72.985C76.4257 107.245 39.746 109.885 29.2967 92.8624C22.3339 81.5697 24.8632 54.4125 50.0194 50.3899V64.6455C44.16 65.6266 40.9569 67.4319 39.2089 70.7873C28.4667 91.5084 66.0448 103.841 63.4471 70.4537V17.9053H76.1717Z" fill="white"/></svg> 